<svg xmlns="http://www.w3.org/2000/svg" viewBox="0 0 512 512">
  <rect width="512" height="512" fill="#17150F"/>
  <g transform="translate(256,258) scale(1.18) translate(-256,-275)" fill="none" stroke="#D8C9A8" stroke-width="16" stroke-linecap="round" stroke-linejoin="round">
    <path d="M256,168 C238,168 224,182 224,199 C224,220 240,236 256,244 C272,236 288,220 288,199 C288,182 274,168 256,168 Z"/>
    <path d="M256,244 L256,270"/>
    <path d="M256,270
             C 214,270 176,286 140,314
             C 118,331 100,347 92,362
             C 86,373 94,382 106,378
             C 150,364 200,354 256,354
             C 312,354 362,364 406,378
             C 418,382 426,373 420,362
             C 412,347 394,331 372,314
             C 336,286 298,270 256,270 Z"/>
  </g>
</svg>
